# xmcd CD database file
#
# Track frame offsets:
#	150
#	7267
#	23850
#	43065
#	63635
#	74570
#	85252
#	102842
#	115067
#	130350
#	146625
#	162897
#	177587
#
# Disc length: 2687 seconds
#
# Revision: 0
# Processed by: cddbd v1.5.1PL0 Copyright (c) Steve Scherf et al.
# Submitted via: CDex 1.51
#
DISCID=bf0a7d0d
DTITLE=BEAST - Imagination∞lenS
DYEAR=2001
DGENRE=Rock
TTITLE0=BEAST CITY
TTITLE1=VISION（ISM∞Version）
TTITLE2=Chemical
TTITLE3=SPIRAL CAVE
TTITLE4=48k rate change（FREEZE）∞convert22
TTITLE5=Lynch
TTITLE6=LUV
TTITLE7=Deadly Nightshade
TTITLE8=COWBOY
TTITLE9=Dayz＆Diez
TTITLE10=LR-7
TTITLE11=NEW NOISE
TTITLE12=SLIDER
EXTD=YEAR: 2001
EXTT0=
EXTT1=
EXTT2=
EXTT3=
EXTT4=
EXTT5=
EXTT6=
EXTT7=
EXTT8=
EXTT9=
EXTT10=
EXTT11=
EXTT12=
PLAYORDER=
